<?xml version="1.0" encoding="UTF-8"?>
<svg width="510" height="510" version="1.1" viewBox="0 0 134.94 134.94" xml:space="preserve" xmlns="http://www.w3.org/2000/svg"><g transform="translate(-.012019 -.31141)"><g transform="matrix(.27396 0 0 .27878 -2.4011 -4.8572)" stroke="#fff" stroke-linecap="round" stroke-linejoin="round"><path d="m329.13 162.31c-6.3157 0.01-22.394 1.5674-29.895 2.9051-7.4612 1.3477-21.876 5.1713-28.819 7.8568-6.9532 2.7055-20.63 9.3543-27.125 13.168-7.4314 4.3926-17.642 11.83-24.107 17.55-5.6283 5.0116-16.158 16.003-20.88 21.793-4.7019 5.7803-12.781 18.339-16.357 25.028-3.5862 6.7486-10.041 21.584-12.004 27.604-1.9425 6.0199-5.4291 21.823-6.475 29.391-1.026 7.5274-1.8529 22.442-1.4544 29.89 0.42835 7.4674 2.5004 22.562 4.1241 29.93 1.8628 8.4358 5.7678 20.476 9.2045 28.392 3.0184 6.9184 10.181 20.356 14.215 26.645 4.0444 6.2595 13.468 17.84 18.708 23.321 5.2896 5.5008 17.383 16.243 22.483 19.966 5.1103 3.7138 19.037 11.92 25.89 15.254 6.8237 3.3045 20.72 8.7054 27.922 10.622 7.2122 1.9068 22.175 4.5823 29.666 5.3211 8.5869 0.8286 21.218 0.8286 29.795 0 7.4911-0.73876 22.463-3.4143 29.676-5.3211 7.1923-1.9168 21.099-7.3177 27.922-10.622 6.8536-3.3344 20.78-11.541 25.89-15.254 5.1003-3.7237 17.194-14.466 22.483-19.966 5.2398-5.4808 14.663-17.061 18.698-23.321 4.0344-6.2894 11.207-19.727 14.225-26.645 3.4368-7.9167 7.3417-19.956 9.2045-28.392 1.6138-7.3676 3.6957-22.462 4.1241-29.93 0.39846-7.4475-0.42836-22.362-1.4544-29.89-1.0559-7.5673-4.5325-23.371-6.475-29.391-1.9624-6.0199-8.4176-20.855-12.004-27.604-3.5862-6.6888-11.655-19.248-16.357-25.028-4.7218-5.7903-15.251-16.782-20.88-21.793-6.4651-5.7204-16.676-13.158-24.107-17.55-6.495-3.8136-20.172-10.462-27.125-13.168-6.9532-2.6855-21.358-6.509-28.819-7.8568-7.511-1.3378-23.579-2.8951-29.895-2.9051z" fill="#ea41d3" stroke-width="9.9724"/><path d="m181.02 162.31c6.3157 0.01 22.394 1.5674 29.895 2.9051 7.4612 1.3477 21.876 5.1713 28.819 7.8568 6.9532 2.7055 20.63 9.3543 27.125 13.168 7.4314 4.3926 17.642 11.83 24.107 17.55 5.6283 5.0116 16.158 16.003 20.88 21.793 4.7019 5.7803 12.781 18.339 16.357 25.028 3.5862 6.7486 10.041 21.584 12.004 27.604 1.9425 6.0199 5.4291 21.823 6.475 29.391 1.026 7.5274 1.8529 22.442 1.4544 29.89-0.42835 7.4674-2.5004 22.562-4.1241 29.93-1.8628 8.4358-5.7678 20.476-9.2045 28.392-3.0184 6.9184-10.181 20.356-14.215 26.645-4.0444 6.2595-13.468 17.84-18.708 23.321-5.2896 5.5008-17.383 16.243-22.483 19.966-5.1103 3.7138-19.037 11.92-25.89 15.254-6.8237 3.3045-20.72 8.7054-27.922 10.622-7.2122 1.9068-22.175 4.5823-29.666 5.3211-8.5869 0.8286-21.218 0.8286-29.795 0-7.4911-0.73876-22.463-3.4143-29.676-5.3211-7.1923-1.9168-21.099-7.3177-27.922-10.622-6.8536-3.3344-20.78-11.541-25.89-15.254-5.1003-3.7237-17.194-14.466-22.483-19.966-5.2398-5.4808-14.663-17.061-18.698-23.321-4.0344-6.2894-11.207-19.727-14.225-26.645-3.4368-7.9167-7.3417-19.956-9.2045-28.392-1.6138-7.3676-3.6958-22.462-4.1241-29.93-0.39846-7.4475 0.42835-22.362 1.4544-29.89 1.0559-7.5673 4.5325-23.371 6.475-29.391 1.9624-6.0199 8.4176-20.855 12.004-27.604 3.5862-6.6888 11.655-19.248 16.357-25.028 4.7218-5.7903 15.251-16.782 20.88-21.793 6.4651-5.7204 16.676-13.158 24.107-17.55 6.495-3.8136 20.172-10.462 27.125-13.168 6.9532-2.6855 21.358-6.509 28.819-7.8568 7.511-1.3378 23.579-2.8951 29.895-2.9051z" fill="#41d3ea" stroke-width="9.9724"/><path d="m154.71 23.526 100.29 138.01" fill="none" stroke-width="9.9724"/><path d="m355.4 23.526-100.29 138.01" fill="none" stroke-width="9.9724"/><path d="m255.15 476.37c-1.883 0.48685-4.2344-1.0224-9.0868-3.7779-7.5224-4.255-17.446-11.947-25.317-18.773-8.2897-7.4584-17.147-16.027-22.229-21.889-5.1013-5.9005-13.55-18.218-17.048-24.703-3.2781-6.105-9.585-20.72-11.578-26.757-2.0027-6.144-5.4302-21.285-6.4763-28.665-1.0263-7.3416-1.8532-21.889-1.4547-29.152 0.42852-7.2832 2.5008-22.005 4.1249-29.191 1.8134-7.9843 5.7888-20.126 9.0369-27.633 3.0788-7.0787 9.8938-19.707 14.128-25.939 4.1648-6.0856 14.238-17.838 19.877-23.388 3.4573-3.3884 18.183-16.407 21.581-18.938 7.921-5.8811 19.668-11.821 24.351-14.138 4.6829 2.3174 16.43 8.2569 24.351 14.138 3.3975 2.5316 18.124 15.55 21.581 18.938 5.6394 5.55 15.712 17.302 19.877 23.388 4.2346 6.2316 11.05 18.86 14.128 25.939 3.2481 7.5072 7.2237 19.649 9.037 27.633 1.624 7.1858 3.6964 21.908 4.1249 29.191 0.39853 7.2637-0.42836 21.811-1.4545 29.152-1.0466 7.3806-4.4836 22.551-6.4763 28.665-1.9828 6.0174-8.3096 20.603-11.618 26.757-3.5072 6.4848-11.916 18.802-16.968 24.712-5.0315 5.8422-14.108 14.742-22.049 21.889-6.9745 6.0466-17.974 14.235-25.058 17.818-2.7997 1.3923-9.1564 4.6542-9.3857 4.7224z" fill="#fff" stroke-linecap="round" stroke-width="9.8496"/></g></g></svg>
